<svg width="136" height="46" viewBox="0 0 136 46" fill="none" xmlns="http://www.w3.org/2000/svg">
<path d="M13.4205 45H0.636364L22.2841 1.36364H38.4773L45.6364 45H32.8523L28.5909 13.3807H28.25L13.4205 45ZM13.9318 27.7841H37.9659L36.4318 36.6477H12.3977L13.9318 27.7841Z" fill="#FF0000"/>
<path d="M49.8391 45L57.0835 1.36364H76.0039C79.3278 1.36364 82.0479 1.81108 84.1644 2.70597C86.2951 3.60085 87.8008 4.86506 88.6815 6.49858C89.5764 8.1321 89.8391 10.0568 89.4698 12.2727C89.1857 13.8636 88.5749 15.3196 87.6374 16.6406C86.7141 17.9474 85.5423 19.0554 84.1218 19.9645C82.7156 20.8594 81.146 21.4773 79.413 21.8182L79.3278 22.2443C81.2028 22.3011 82.8363 22.7699 84.2283 23.6506C85.6204 24.517 86.6431 25.7244 87.2965 27.2727C87.9499 28.8068 88.1062 30.5966 87.7653 32.642C87.3675 35.0284 86.3945 37.152 84.8462 39.0128C83.2979 40.8736 81.288 42.3366 78.8164 43.402C76.3448 44.4673 73.5323 45 70.3789 45H49.8391ZM63.305 35.5398H68.8448C70.805 35.5398 72.3462 35.1634 73.4684 34.4105C74.6048 33.6577 75.2795 32.5568 75.4925 31.108C75.663 30.0852 75.5778 29.2187 75.2369 28.5085C74.896 27.7983 74.3207 27.2585 73.511 26.8892C72.7014 26.5199 71.6857 26.3352 70.4641 26.3352H64.7539L63.305 35.5398ZM66.0323 19.0057H70.8903C71.913 19.0057 72.8505 18.8423 73.7028 18.5156C74.555 18.1889 75.2582 17.7131 75.8121 17.0881C76.3661 16.4631 76.7141 15.7102 76.8562 14.8295C77.0692 13.4659 76.7425 12.429 75.8761 11.7188C75.0238 11.0085 73.8732 10.6534 72.4244 10.6534H67.396L66.0323 19.0057Z" fill="#FFF500"/>
<path d="M135.13 17.7273H123.284C123.369 16.7187 123.312 15.8097 123.113 15C122.914 14.1903 122.574 13.4943 122.091 12.9119C121.608 12.3153 120.975 11.8608 120.194 11.5483C119.413 11.2358 118.483 11.0795 117.403 11.0795C115.329 11.0795 113.475 11.598 111.842 12.6349C110.208 13.6577 108.852 15.1278 107.772 17.0455C106.693 18.9489 105.926 21.2216 105.471 23.8636C105.074 26.4205 105.059 28.544 105.429 30.2344C105.812 31.9247 106.558 33.1889 107.666 34.027C108.788 34.8651 110.244 35.2841 112.034 35.2841C113.227 35.2841 114.321 35.142 115.315 34.858C116.324 34.5739 117.218 34.169 118 33.6435C118.795 33.1037 119.47 32.4645 120.024 31.7259C120.592 30.973 121.025 30.142 121.324 29.233H133.255C132.801 31.0795 131.991 32.9687 130.826 34.9006C129.662 36.8182 128.156 38.5866 126.309 40.206C124.463 41.8111 122.289 43.1108 119.789 44.1051C117.289 45.0994 114.477 45.5966 111.352 45.5966C107.261 45.5966 103.731 44.7017 100.762 42.9119C97.8079 41.1222 95.663 38.5085 94.3278 35.071C93.0067 31.6335 92.744 27.4432 93.5394 22.5C94.3349 17.7273 95.9045 13.7287 98.2482 10.5043C100.592 7.27983 103.44 4.85085 106.792 3.21733C110.145 1.58381 113.71 0.767044 117.488 0.767044C120.343 0.767044 122.9 1.14346 125.159 1.8963C127.431 2.64915 129.342 3.75 130.89 5.19886C132.453 6.63352 133.603 8.40199 134.342 10.5043C135.081 12.6065 135.343 15.0142 135.13 17.7273Z" fill="#05FF00"/>
</svg>
